<svg id="logo" xmlns="http://www.w3.org/2000/svg" xmlns:xlink="http://www.w3.org/1999/xlink" viewBox="0 0 1035.3 300"><defs><style>.cls-1{fill:url(#linear-gradient);}.cls-2{fill:none;}.cls-3{fill:#555b68;}</style><linearGradient id="linear-gradient" x1="71.37" y1="228.63" x2="228.63" y2="71.37" gradientUnits="userSpaceOnUse"><stop offset="0" stop-color="#00aee9"/><stop offset="1" stop-color="#69fabd"/></linearGradient></defs><title>Harmony-logo-FC-horizontal</title><path class="cls-1" d="M201.17,60a38.81,38.81,0,0,0-38.84,38.71v42.92c-4,.27-8.09.44-12.33.44s-8.31.17-12.33.41V98.71a38.84,38.84,0,0,0-77.67,0V201.29a38.84,38.84,0,0,0,77.67,0V158.37c4-.27,8.09-.44,12.33-.44s8.31-.17,12.33-.41v43.77a38.84,38.84,0,0,0,77.67,0V98.71A38.81,38.81,0,0,0,201.17,60ZM98.83,75.86a22.91,22.91,0,0,1,22.92,22.85v45.45a130.64,130.64,0,0,0-33,9.33,60,60,0,0,0-12.8,7.64V98.71A22.91,22.91,0,0,1,98.83,75.86Zm22.92,125.43a22.92,22.92,0,0,1-45.84,0V191c0-9.09,7.2-17.7,19.27-23.06a113,113,0,0,1,26.57-7.77Zm79.42,22.85a22.91,22.91,0,0,1-22.92-22.85V155.84a130.64,130.64,0,0,0,33-9.33,60,60,0,0,0,12.8-7.64v62.42A22.91,22.91,0,0,1,201.17,224.14ZM204.82,132a113,113,0,0,1-26.57,7.77V98.71a22.92,22.92,0,0,1,45.84,0V109C224.09,118.05,216.89,126.66,204.82,132Z"/><rect class="cls-2" width="1035.3" height="300"/><rect class="cls-2" x="300" y="60" width="675.3" height="180"/><path class="cls-3" d="M759.12,122.2A43.85,43.85,0,1,0,803,166.06h0A43.86,43.86,0,0,0,759.12,122.2Zm29.59,43.85a29.62,29.62,0,1,1,0-.06Z"/><path class="cls-3" d="M495.48,122.51a7.1,7.1,0,0,0-7.1,7.11v4.18a43.85,43.85,0,1,0,0,64.48v4.13a7.11,7.11,0,1,0,14.21,0V129.62A7.11,7.11,0,0,0,495.48,122.51Zm-7.1,43.54a29.63,29.63,0,0,1-29.63,29.62h0A29.64,29.64,0,1,1,488.38,166Z"/><path class="cls-3" d="M571.83,129.32a7.11,7.11,0,0,1-7.1,7.1h-.92A29.62,29.62,0,0,0,534.18,166v0c-.37,1.46-.22,24-.1,37.34a7.07,7.07,0,0,1-8,6.08l-.12,0a7.32,7.32,0,0,1-6-7.36V129.62a7.11,7.11,0,0,1,7.11-7.11h.38a7.38,7.38,0,0,1,6.72,7.5v3.78a43.65,43.65,0,0,1,29.63-11.6h.92a7.1,7.1,0,0,1,7.1,7.1v0Z"/><path class="cls-3" d="M887.53,159v43.48a7.11,7.11,0,0,1-7.11,7.11h0a7.11,7.11,0,0,1-7.09-7.11v-7.1h0V159a22.22,22.22,0,0,0-22.24-22.18c-.51,0-1,0-1.52.06-11.77.78-20.65,11.1-20.65,22.9v8.64h0v27h0v7.1a7.11,7.11,0,0,1-14.22,0V129.66a7.11,7.11,0,0,1,14.22,0v.67a35.23,35.23,0,0,1,20.41-7.73,36.39,36.39,0,0,1,38.15,34.53C887.51,157.74,887.53,158.34,887.53,159Z"/><path class="cls-3" d="M401.21,96.93V203.08a7,7,0,0,1-14,0V155.17H314v48a7,7,0,0,1-14,0V96.93a7,7,0,0,1,14,0V143h73.11V96.93a7,7,0,0,1,14,0Z"/><path class="cls-3" d="M704.66,162.31h0v40.11a7.11,7.11,0,0,1-7.11,7.11h0a7.1,7.1,0,0,1-7.1-7.11h0V165.87h0v-9.61a19.84,19.84,0,0,0-39.67-.91c0,.3,0,.6,0,.91h0v46.16a7.11,7.11,0,1,1-14.21,0V165.87h0v-9.61h0a19.84,19.84,0,0,0-39.67-.91c0,.3,0,.6,0,.91v46.16a7.11,7.11,0,1,1-14.21,0V129.66a7.09,7.09,0,0,1,14.12-1,34,34,0,0,1,46.86,6.85,34,34,0,0,1,61,20.75Z"/><path class="cls-3" d="M974.27,132.77,926.36,236.41a7.23,7.23,0,0,1-13.06-6l12.88-27.89-32.26-69.72a7.23,7.23,0,1,1,12.44-7.37,7,7,0,0,1,.62,1.33l27.13,58.63,27.12-58.63a7.23,7.23,0,1,1,13.06,6Z"/></svg>